<svg width="6" height="20" viewBox="0 0 6 20" fill="none" xmlns="http://www.w3.org/2000/svg">
<path d="M5.18861 0.790511L4.68767 12.7882H1.05579L0.554839 0.790511H5.18861ZM2.93435 19.2004C2.18292 19.2004 1.56509 18.9833 1.08083 18.5491C0.613283 18.0983 0.379507 17.5472 0.379507 16.896C0.379507 16.2281 0.613283 15.6687 1.08083 15.2178C1.56509 14.767 2.18292 14.5416 2.93435 14.5416C3.66907 14.5416 4.27021 14.767 4.73776 15.2178C5.22201 15.6687 5.46414 16.2281 5.46414 16.896C5.46414 17.5472 5.22201 18.0983 4.73776 18.5491C4.27021 18.9833 3.66907 19.2004 2.93435 19.2004Z" fill="#9E1C1C"/>
</svg>
