<svg width="26" height="27" viewBox="0 0 26 27" fill="none" xmlns="http://www.w3.org/2000/svg">
<path d="M5.02026 9H22.5092L23.1366 6.42857H7.5298V3.85714H24.7452C24.9359 3.85715 25.1242 3.90171 25.2956 3.98743C25.467 4.07316 25.617 4.19779 25.7344 4.35187C25.8517 4.50594 25.9332 4.6854 25.9727 4.8766C26.0122 5.0678 26.0087 5.26571 25.9623 5.45529L22.8254 18.3124C22.7574 18.5905 22.6007 18.8372 22.3802 19.0136C22.1597 19.1899 21.888 19.2857 21.6083 19.2857H3.76424C3.43146 19.2857 3.1123 19.1503 2.87699 18.9091C2.64167 18.668 2.50947 18.341 2.50947 18V2.57143H-6.10352e-05V0H3.76424C4.09703 0 4.41618 0.135459 4.6515 0.376577C4.88681 0.617695 5.01901 0.944722 5.01901 1.28571L5.02026 9ZM5.02026 27C4.35469 27 3.71638 26.7291 3.24575 26.2468C2.77513 25.7646 2.51073 25.1106 2.51073 24.4286C2.51073 23.7466 2.77513 23.0925 3.24575 22.6103C3.71638 22.1281 4.35469 21.8571 5.02026 21.8571C5.68583 21.8571 6.32414 22.1281 6.79477 22.6103C7.2654 23.0925 7.5298 23.7466 7.5298 24.4286C7.5298 25.1106 7.2654 25.7646 6.79477 26.2468C6.32414 26.7291 5.68583 27 5.02026 27ZM20.0775 27C19.4119 27 18.7736 26.7291 18.303 26.2468C17.8323 25.7646 17.5679 25.1106 17.5679 24.4286C17.5679 23.7466 17.8323 23.0925 18.303 22.6103C18.7736 22.1281 19.4119 21.8571 20.0775 21.8571C20.743 21.8571 21.3814 22.1281 21.852 22.6103C22.3226 23.0925 22.587 23.7466 22.587 24.4286C22.587 25.1106 22.3226 25.7646 21.852 26.2468C21.3814 26.7291 20.743 27 20.0775 27Z" fill="#F8F8F8"/>
</svg>
